<?xml version="1.0" encoding="UTF-8"?>
<svg id="Calque_1" data-name="Calque 1" xmlns="http://www.w3.org/2000/svg" viewBox="0 0 156.21 79.08">
  <defs>
    <style>
      .cls-1 {
        fill: #03684c;
        stroke: #03684c;
        stroke-miterlimit: 10;
      }
    </style>
  </defs>
  <path class="cls-1" d="M53.48,21.28C50.92.55,26.78,0,26.78,0H0s0,79.08,0,79.08h17.64v-28.58s6.26-.03,6.26-.03c35.17-.23,29.58-29.2,29.58-29.2ZM36.5,26.21c-.43,4.85-1.9,8.07-3.48,10.19-1.77,2.38-4.59,3.75-7.56,3.75h-7.82V10.94s7.52,0,7.52,0c4.65,0,8.93,2.82,10.51,7.2.74,2.06,1.13,4.7.83,8.06Z"/>
  <rect class="cls-1" x="137.36" y=".6" width="18.85" height="78.48"/>
  <polygon class="cls-1" points="61.29 .6 79.54 .6 79.54 33.45 100.23 33.45 100.23 .6 119.09 .6 119.09 79.08 100.23 79.08 100.23 45.62 80.15 45.62 80.15 79.08 61.29 79.08 61.29 .6"/>
</svg>