<?xml version="1.0" encoding="UTF-8"?>
<svg id="Calque_1" xmlns="http://www.w3.org/2000/svg" version="1.1" viewBox="0 0 841.89 595.28">
  <!-- Generator: Adobe Illustrator 30.2.1, SVG Export Plug-In . SVG Version: 2.1.1 Build 1)  -->
  <defs>
    <style>
      .st0 {
        fill: #afd19c;
      }

      .st1 {
        stroke: #03684c;
        stroke-miterlimit: 10;
      }

      .st1, .st2 {
        fill: #03684c;
      }

      .st3 {
        fill: #fdfefd;
      }

      .st4 {
        fill: #b5d59a;
      }

      .st5 {
        fill: #fffdee;
      }

      .st6 {
        fill: #fcfdfb;
      }

      .st7 {
        fill: #b4d49a;
      }
    </style>
  </defs>
  <path class="st5" d="M676.26,228.46h-370.46v-1.63c-15.65-34.26-50.39-56.86-88.39-56.86s-72.18,21.89-88.07,56.29h-11.96c-2.46,0-4.81.97-6.55,2.71-1.74,1.74-2.71,4.09-2.71,6.55v81.01c0,2.46.97,4.81,2.71,6.55,1.74,1.74,4.09,2.71,6.55,2.71h18.07c1.29,0,2.55-.27,3.7-.77,17.89,24.42,46.38,39.22,77.89,39.22h.41c31.03-.13,59.25-14.47,77.35-38.42h381.46c11.94,0,21.62-9.68,21.62-21.62v-54.12c0-11.94-9.68-21.62-21.62-21.62Z"/>
  <g>
    <path class="st2" d="M356.41,248.16c0-.05,0-.1,0-.15-.09-3.6-3.12-6.44-6.72-6.44h-11.4s0,23.07,0,23.07h5.74l.04-9.87,5.85-.04c3.57-.02,6.5-2.9,6.51-6.47,0-.07,0-.1,0-.1ZM350.93,247.45c.69,1.95-.76,3.99-2.82,3.99h-1.42c-.1,0-.2.04-.28.12l-2.35,2.35v-8.22h4.39c1.12,0,2.11.7,2.49,1.76h0Z"/>
    <path class="st2" d="M358.1,264.64v-23.07s4.94,0,4.94,0v9.87l2.48-3.28s6.03-4.17,7.8,2.38c.25.92.34,1.88.35,2.84l.08,11.27h-4.95l.02-10.17c0-1.16-.61-2.28-1.67-2.75-.6-.26-1.33-.38-2.15-.08-1.23.44-1.99,1.69-1.99,3l.04,10h-4.94Z"/>
    <path class="st2" d="M377.22,252.24c.44-.29,3.9-2.51,6.85-.99.74.38,1.34,1.39,1.34,2.23v1.26s-11.33-2.36-9.84,5.31c0,0,.46,3.36,3.45,4.35,1.41.46,2.98.26,4.25-.5.8-.48,1.65-1.25,2.13-2.47,0,0-1.75.6-3.35.33-2.07-.35-3-2.96-1.59-4.51.61-.68,1.69-1.08,3.58-.49.81.25,1.36,1.02,1.36,1.87v6.02s4.94.01,4.94.01v-11.52c0-1.22-.45-2.41-1.3-3.29-2.12-2.19-6.6-5.01-11.84,2.38,0,0,0,.03,0,.02Z"/>
    <path class="st2" d="M436.98,252.24c.44-.29,3.9-2.51,6.85-.99.74.38,1.34,1.39,1.34,2.23v1.26s-11.33-2.36-9.84,5.31c0,0,.46,3.36,3.45,4.35,1.41.46,2.98.26,4.25-.5.8-.48,1.65-1.25,2.13-2.47,0,0-1.75.6-3.35.33-2.07-.35-3-2.96-1.59-4.51.61-.68,1.69-1.08,3.58-.49.81.25,1.36,1.02,1.36,1.87v6.02s4.94.01,4.94.01v-11.52c0-1.22-.45-2.41-1.3-3.29-2.12-2.19-6.6-5.01-11.84,2.38,0,0,0,.03,0,.02Z"/>
    <path class="st2" d="M577.79,252.24c.44-.29,3.9-2.51,6.85-.99.74.38,1.34,1.39,1.34,2.23v1.26s-11.33-2.36-9.84,5.31c0,0,.46,3.36,3.45,4.35,1.41.46,2.98.26,4.25-.5.8-.48,1.65-1.25,2.13-2.47,0,0-1.75.6-3.35.33-2.07-.35-3-2.96-1.59-4.51.61-.68,1.69-1.08,3.58-.49.81.25,1.36,1.02,1.36,1.87v6.02s4.94.01,4.94.01v-11.52c0-1.22-.45-2.41-1.3-3.29-2.12-2.19-6.6-5.01-11.84,2.38,0,0,0,.03,0,.02Z"/>
    <path class="st2" d="M634.41,252.24c.44-.29,3.9-2.51,6.85-.99.74.38,1.34,1.39,1.34,2.23v1.26s-11.33-2.36-9.84,5.31c0,0,.46,3.36,3.45,4.35,1.41.46,2.98.26,4.25-.5.8-.48,1.65-1.25,2.13-2.47,0,0-1.75.6-3.35.33-2.07-.35-3-2.96-1.59-4.51.61-.68,1.69-1.08,3.58-.49.81.25,1.36,1.02,1.36,1.87v6.02s4.94.01,4.94.01v-11.52c0-1.22-.45-2.41-1.3-3.29-2.12-2.19-6.6-5.01-11.84,2.38,0,0,0,.03,0,.02Z"/>
    <path class="st2" d="M393.04,264.64v-16.47h5.76v2.46l2.48-2.46h3.29v4.86s-.02.03-.03.02c-.29-.22-2.47-1.74-4.75-1.15-.57.15-.98.66-.98,1.25v11.49s-5.77,0-5.77,0Z"/>
    <path class="st2" d="M657.12,264.63v-16.47h5.76v2.46l2.48-2.46h3.29v4.86s-.02.03-.03.02c-.29-.22-2.47-1.74-4.75-1.15-.57.15-.98.66-.98,1.25v11.49s-5.77,0-5.77,0Z"/>
    <path class="st2" d="M407.14,264.64l.07-16.48,4.82.05v3.22l2.52-3.28s6.14-2.41,7.38,3.33l3.31-3.24s6.2-1.93,7.41,2.41v13.99h-4.94v-11.55s-2.65-3.25-5.77.02v11.53s-4.93,0-4.93,0v-11.53s-2.86-3.06-4.96,0v11.53h-4.9Z"/>
    <path class="st2" d="M547.75,264.64l.07-16.48,4.82.05v3.22l2.52-3.28s6.14-2.41,7.38,3.33l3.31-3.24s6.2-1.93,7.41,2.41v13.99h-4.94v-11.55s-2.65-3.25-5.77.02v11.53s-4.93,0-4.93,0v-11.53s-2.86-3.06-4.96,0v11.53h-4.9Z"/>
    <path class="st2" d="M464.96,264.47l1.63-3.99c-6.6,2.59-7.86-2.35-7.86-2.35-.35-1.08-.39-2.25-.17-3.37,1.13-5.71,7.27-1.77,7.27-1.77v-4.09c-.35-.14-1.19-.35-1.93-.52-1.19-.28-2.41-.44-3.63-.37,0,0-7.53.27-7.59,8.23,0,0-.8,9.83,12.29,8.24Z"/>
    <polygon class="st2" points="468.8 264.63 473.73 264.59 473.73 248.15 468.8 248.15 468.8 264.63"/>
    <path class="st2" d="M471.26,246.77c1.55,0,2.81-1.26,2.81-2.81s-1.26-2.81-2.81-2.81-2.81,1.26-2.81,2.81,1.26,2.81,2.81,2.81Z"/>
    <polygon class="st2" points="612.04 264.65 616.98 264.61 616.98 248.17 612.05 248.17 612.04 264.65"/>
    <path class="st2" d="M614.51,246.79c1.55,0,2.81-1.26,2.81-2.81s-1.26-2.81-2.81-2.81-2.81,1.26-2.81,2.81,1.26,2.81,2.81,2.81Z"/>
    <polygon class="st2" points="649.7 264.63 654.64 264.59 654.64 248.15 649.71 248.15 649.7 264.63"/>
    <path class="st2" d="M652.17,246.76c1.55,0,2.81-1.26,2.81-2.81s-1.26-2.81-2.81-2.81-2.81,1.26-2.81,2.81,1.26,2.81,2.81,2.81Z"/>
    <path class="st2" d="M484.11,247.62s-6.77-.34-8.04,6.53c-.31,1.7-.21,3.46.36,5.09,2.76,7.84,12.62,4.83,12.62,4.83l2.36-4.08c-8.26,3.66-9.81-3.33-9.81-3.33l10.73.02s1.25-9-8.23-9.06ZM481.63,253.39s.02-3.45,2.89-3.34c2.64.1,2.89,3.34,2.89,3.34h-5.77Z"/>
    <path class="st2" d="M677.91,247.62s-6.77-.34-8.04,6.53c-.31,1.7-.21,3.46.36,5.09,2.76,7.84,12.62,4.83,12.62,4.83l2.36-4.08c-8.26,3.66-9.81-3.33-9.81-3.33l10.73.02s1.25-9-8.23-9.06ZM675.42,253.39s.02-3.45,2.89-3.34c2.64.1,2.89,3.34,2.89,3.34h-5.77Z"/>
    <polygon class="st2" points="504.07 264.64 509.86 264.64 509.88 254.79 518.94 254.79 518.94 264.64 524.68 264.64 524.7 241.61 518.92 241.61 518.94 249.85 509.86 249.87 509.86 241.61 504.14 241.61 504.07 264.64"/>
    <path class="st2" d="M538.68,248.15h5.77v16.43l-5.77.06v-3.32s-4.65,5.75-8.65,2.09c-1.35-1.23-2.03-3.04-2.03-4.86v-10.4h5.71v9.7c0,.94.28,1.89.91,2.59.79.89,2.13,1.43,4.06-.73v-11.57Z"/>
    <path class="st2" d="M599.44,264.65h-5.77s0-16.43,0-16.43l5.77-.06v3.32s4.65-5.75,8.65-2.09c1.35,1.23,2.03,3.04,2.03,4.86v10.4h-5.71v-9.7c0-.94-.28-1.89-.91-2.59-.79-.89-2.13-1.43-4.06.73v11.57Z"/>
    <path class="st2" d="M630.79,261.31s-3.35,5.12-7.28,2.69c-1.64-1.01-2.55-2.88-2.55-4.8v-7.01h-2.62l.97-1.58,1.61-2.46v-2.52l4.92-1.64.03,4.91,4.1.03.03,3.2h-4.13l.02,5.71c0,2.48,2.42,4.28,4.77,3.51.04-.01.08-.03.13-.04Z"/>
    <polygon class="st4" points="337.53 314 337.52 273.65 344.91 273.65 344.91 314 337.53 314"/>
    <path class="st4" d="M375.81,296.19v17.81h-6.58v-16.98c.01-2.83-1.91-5.4-4.69-5.95-.6-.12-1.23-.15-1.91-.04-2.91.45-4.97,3.13-4.96,6.08v16.89s-6.57,0-6.57,0l.02-27.17h6.55v4.11s7.08-8.37,14.03-3.22c2.65,1.97,4.1,5.17,4.1,8.47Z"/>
    <path class="st4" d="M481.63,296.19v17.81h-6.58v-16.98c.01-2.83-1.91-5.4-4.69-5.95-.6-.12-1.23-.15-1.91-.04-2.91.45-4.97,3.13-4.96,6.08v16.89s-6.57,0-6.57,0l.02-27.17h6.55v4.11s7.08-8.37,14.03-3.22c2.65,1.97,4.1,5.17,4.1,8.47Z"/>
    <path class="st4" d="M610.6,296.19v17.81h-6.58v-16.98c.01-2.83-1.91-5.4-4.69-5.95-.6-.12-1.23-.15-1.91-.04-2.91.45-4.97,3.13-4.96,6.08v16.89s-6.57,0-6.57,0l.02-27.17h6.55v4.11s7.08-8.37,14.03-3.22c2.65,1.97,4.1,5.17,4.1,8.47Z"/>
    <path class="st4" d="M399.54,314h-7.54c-2.12,0-4.15-1.1-5.13-2.98-.31-.6-.52-1.26-.52-1.96v-18.11s-5.75,0-5.75,0v-4.93h5.74v-4.14l6.57-3.28.03,7.39h6.58v4.93l-6.59.03v15.08c0,1.21.66,2.33,1.74,2.89s2.64.87,4.85.16v4.93Z"/>
    <path class="st4" d="M535.06,314h-7.54c-2.12,0-4.15-1.1-5.13-2.98-.31-.6-.52-1.26-.52-1.96v-18.11s-5.75,0-5.75,0v-4.93h5.74v-4.14l6.57-3.28.03,7.39h6.58v4.93l-6.59.03v15.08c0,1.21.66,2.33,1.74,2.89s2.64.87,4.85.16v4.93Z"/>
    <path class="st4" d="M429.84,300.9s1.81-15.68-12.2-15.75c0,0-10.48-.69-12.87,10.8-.73,3.5-.55,7.17.77,10.5.08.21.17.43.27.64,1.91,4.27,6.26,6.91,10.93,6.91h4.89c6.8,0,8.21-9.05,8.21-9.05h-6.56s-.3,4.9-4.96,4.95c0,0-6.5.84-6.61-7.35v-1.65h18.13ZM417.49,290.14c6.21,0,5.76,6.54,5.76,6.54h-11.52s-.23-6.54,5.76-6.54Z"/>
    <path class="st4" d="M435.59,314l.06-27.18h6.53v4.11s2.27-5.1,9.05-4.11v5.76s-3.43.08-6.21,1.55c-1.76.93-2.82,2.81-2.82,4.8v15.06h-6.62Z"/>
    <polygon class="st4" points="540.52 314 547.09 314 547.09 286.83 540.53 286.83 540.52 314"/>
    <rect class="st4" x="540.53" y="274.48" width="6.57" height="5.74"/>
    <polygon class="st4" points="646.94 314 646.94 273.64 654.36 273.65 654.36 314 646.94 314"/>
    <path class="st4" d="M670.59,313.92c-4.6-.26-8.15-3.73-9.35-8.23-1.03-3.86-.85-7.95.34-11.67,1.83-5.7,6.86-8.62,12.7-8.37,5.44.23,9.9,3.22,11.13,8.68.52,2.31.87,4.73.63,7.1l-18.2.04c-.3,2.6.29,5.27,2.26,6.93,1.62,1.36,3.86,1.53,5.88.68,1.46-.61,2.38-2.35,2.83-4.44,2.35.05,4.63.12,6.77.17-.33,4.84-3.69,8.54-8.13,9.04-1.7.19-5.14.17-6.84.07ZM678.67,296.68c-.02-.8-.1-1.5-.24-2.12-.57-2.62-3.02-4.52-5.68-4.15-.75.1-1.47.37-2.1.81-1.68,1.17-2.44,3.41-2.38,5.58l10.4-.12Z"/>
    <path class="st4" d="M628.97,313.92c-1.98.31-6.29-.3-7.88-1.42-3.04-2.13-4.07-5.58-3.35-9.14,1.51-7.45,10.69-7.54,16.84-7.54.25-1.9.11-4.11-1.43-5.34-1.69-1.35-4.33-1.23-6.12-.23-1.27.71-1.57,2.45-1.75,3.37-1.99.07-4.18.07-6.43.12-.4-3.57,1.88-6.82,5.45-7.78,6.09-1.63,17.11-.84,17.15,7.48l.05,11.23c.01,2.89.09,5.54.47,8.42l-6.4-.07c-.31-1.15-.39-2.09-.83-3.17-1.56,2.28-3.47,3.7-5.78,4.06ZM634.06,305.67c.76-1.89.65-3.58.55-5.43-3.45-.19-9.55-.42-9.95,3.91-.13,1.42-.02,3.06,1.31,3.98,2.69,1.85,6.81.71,8.09-2.47Z"/>
    <path class="st4" d="M500.14,313.92c-1.98.31-6.29-.3-7.88-1.42-3.04-2.13-4.07-5.58-3.35-9.14,1.51-7.45,10.69-7.54,16.84-7.54.25-1.9.11-4.11-1.43-5.34-1.69-1.35-4.33-1.23-6.12-.23-1.27.71-1.57,2.45-1.75,3.37-1.99.07-4.18.07-6.43.12-.4-3.57,1.88-6.82,5.45-7.78,6.09-1.63,17.11-.84,17.15,7.48l.05,11.23c.01,2.89.09,5.54.47,8.42l-6.4-.07c-.31-1.15-.39-2.09-.83-3.17-1.56,2.28-3.47,3.7-5.78,4.06ZM505.23,305.67c.76-1.89.65-3.58.55-5.43-3.45-.19-9.55-.42-9.95,3.91-.13,1.42-.02,3.06,1.31,3.98,2.69,1.85,6.81.71,8.09-2.47Z"/>
    <path class="st4" d="M555.82,304.39c-.9-3.24-1.04-6.67-.26-9.95,1.45-6.1,6.57-9.86,12.79-9.89,5.22-.02,9.83,2.6,11.86,7.5,1.7,4.11,1.45,8.72.62,12.3-1.26,5.4-5.25,9.69-12.52,9.64-7.37-.05-11.17-4.89-12.49-9.61ZM573.55,293.59c-.84-2.53-2.95-4.04-5.41-3.98-6.77.16-6.81,10.45-4.71,15.19,1.02,2.3,3.17,3.5,5.51,3.33,6.26-.47,6.09-10.13,4.62-14.54Z"/>
  </g>
  <g>
    <path class="st7" d="M238.77,270.4s11.58,10.05,21.55,12.03l4.43-9.59-2.56-16.14.83-22.1h-24.8v24.8l.56,10.99Z"/>
    <path class="st7" d="M260.27,289.37c-.89-.64-13.63-9.64-19.6-1.86l-2.46,11.95.72,18.93,2.38,2.84,20.3-1.05-1.29-30.7s-.02-.08-.05-.1Z"/>
    <path class="st0" d="M200.1,238.1s5.57.15,5.7-1.27l-1.07-1.25h-4.19l-1.05,1.67.19.47s.29.36.4.37Z"/>
    <path class="st7" d="M136.08,234.93s6.4,29.56.63,53.21l-.63-53.21Z"/>
    <path class="st3" d="M200.1,238.1s4.46.57,5.7-1.27,3.17,0,3.17,0c0,0-1.58,4.97-.62,8.9.96,3.93-4.96,7.24-4.96,7.24,0,0-2.66,2.63-3.3,2.23s0-17.1,0-17.1"/>
    <path class="st3" d="M200.1,269.77s4.21-2.01,5.86-.56,4.56,4.92,2.18,5.57c-2.38.65-6.93.91-8.03.05s0-5.07,0-5.07"/>
    <path class="st6" d="M219.75,268.5s-2.45-.71-2.26.18.75,1.83,1.51,1.78l.75-.06v-1.9"/>
    <path class="st7" d="M307.32,265.97c0,49.45-40.09,89.34-89.54,89.54-49.62.2-89.68-39.91-89.54-89.54.15-49.45,40.09-89.54,89.54-89.54s89.54,40.09,89.54,89.54Z"/>
    <path class="st3" d="M246.55,201.83c-.22-.19-2.68-4.34-2.99-4.95-.38-.76-.24-2.27-.4-2.43-.29-.29-6.24-.27-7.55-2.91-.26-1.43.62-.88,1.57-.95,1.33-.09,3.8.37,4.78-.3,3.11-2.14-1.87-2.31-2.75-2.83-.62-.37-.94-1.68-1.66-2.28-7.26-6.09-32.39-5.81-40.02-.64-5.49,3.73-.16,3.67.04,4.49-.36,4.02-4.52,5.09-6.34,7.26-.95,1.14-1.44,2.27-1.27,3.8-4.39-.97-3.4-2.79-6.22,1.06-3.29,4.49-1.63-2.21.79-3.64,1.63-.97,4.77-.39,6.07-1.85.87-.98,4.13-6.99.94-6.99-2.05,0-2.42,6.22-6.83,5.11-.84-.21-1.01-3.13-5.85-2.6-2.31.25-2.3,1.57-3.87,2.49-5.36,3.14-5.11,4.08-9.14,7.98-1.09,1.05-3.66.53-2.17,2.89,1.66.04,3.32-.29,4.88-.82,1.84-.63,10.03-6.1,10.63-5.52-.43,1-.5,5.38-.7,5.63-.4.5-4.71.36-5.36,1.29-.9,1.27.52,4.93-2.48,8.29-3.53,3.96-8.59.53-11.14,2.17-1.71,1.11,2.42,5.78-2.5,8.26-4.35,2.19-3.44-1.43-6.65-1.64-4.84-.32-5.38,3.14-7.9,5.47-2.28,2.11-5.92,2.95-6.37,7.25h0s6.37,10.63,4.19,14.26-6.36,8.26-4.92,12.34c1.43,4.08,1.29,15.27,1,16.87-.29,1.6.12,8.47.37,9.73.58,1.77.25,6.46.94,7.61.46.77,2.94,1.26,3.87,2.46,1.19,1.52.6,2.82,1.21,3.85.36.62,3.93,2.15,5.07,3.17.58.52,4.27,5.21,4.44,5.73.2.6-.24,3.59-.37,3.71-.22.21-3.5.09-4.36.72.19,4.37,3.97,7.69,7.29,10.08l7.27,7.62h0s10.98,3.8,13.95,7.6h0c-.19,1.54,2.1,2.27,3.16,2.86,12.98,7.2,29.84,7.95,44.38,7.9-.91-3.19-3.15-5.94-2.53-9.5h0,0s.3-1.99-.72-3.33.72-3.64.72-3.64h0c.75-2.9-2.51-1.46-3.09-3.62-.83-3.07,3.3-6.61-4.24-7.75-2.94-.44-6.03-.72-9-1.13-3.45-.48-12.4-.55-14.71-1.77-1.2-.63-1.8-3.15-3.19-3.78-1.77-.8-4.73.13-5.61-.41-1.22-.76,0-6.19-1.69-8.13-1.37-1.57-7.7-2.52-7.91-3.51,4.89-6.73,1.83-13.35,8.21-19.65,3.26-3.22,12.46-7.55,16.93-9.69,1.16-.55,2.05-.93,3.38-.73,0-1.69,0-3.38,0-5.07-3.93-.35-7.68-.61-7.66-5.39,0-2.7,4.23-9.88,7.66-9.18-.02-2.43.46-16.38,0-17.1-.09-.14-2.21-.16-1.9-1.57.11-.51,2.43-1.98,2.88-3.46.51-1.67.24-3.4.29-5.1,4.23,1.31,4.97,4.81,4.43,8.86,1.06-.02,2.11.01,3.17,0-.13-1.9.28-4.03-.13-5.89-.7-3.13-4.49-2.8-2.49-7.82.79-1.98,5.45-.26,6.15,1.02,1.03,1.89-.88,2.25-1.32,3.19-1.18,2.51,5.17,6.28,4.77,9.48h3.8c.05-.07,1.1,0,1.55-.63.98-1.4.04-5.11,2.89-3.47-2.26,9.11,5.33,1.91,10.09,1.84,3.39-1.76,3.77-6.28,5.27-7.71,1.15-1.1,4.71-.5,4.28-2.69h-9.19c-2.6,0,2.67-6.64-.95-8.55-4.09-2.17-4.05,5.71-3.77,8.2.2,1.78,2.34,3.58.29,5.43-2.45,2.21-9.13-2.94-9.11-6.03.03-4.27,4.09-5.94,5.55-8.29.92-1.48.32-3.23,1.58-4.75,2.67-3.21,13.03-3.54,10.43.61-.46.74-3.22-.11-2.36,2.2.61,1.63,2.46,1.94,4,1.68,3.15-.52,2.03-4.5,3.23-6.3.43-.64,1.38-.81,1.89-1.31.54-.53.84-1.62,1.06-1.76,1.11-.67,5.23.2,6.84-.14,1.71-1.49-6.2-2.83-6.8-3.33ZM161.44,227.96c.19-1.99-.52-5.49.58-7.18.44-.67,4.94-1.88,5.12-1.68,1.1,1.26-1.54,2.32-1.97,3.4-.91,2.24.09,5.81-3.72,5.47ZM212.11,215.25c-.7,1.13-12.38,1.29-8.88-3.48,3.06-4.18,4.66.79,5.74,1.32,1.01.5,3.07.2,3.18.31.07.06.07,1.67-.04,1.85ZM211.55,204.25c-7.52,2.23-11.07,1.91-18.63,6.08-1.84,1.01-2.44,3.28-5.49,2.43-2.52-8.67,8.77-10.87,13.33-15.49,1.75-1.77,2.53-5.35,3.81-6.33.78-.6,4.99-1.8,5.99-1.66,1.51.21,1.31,1.54,1.71,1.8,1.75,1.09,7.22-1.8,7.46,3.05.15,2.84-5.55,9.33-8.19,10.12Z"/>
    <path class="st3" d="M298.32,270.4c-2.4.31-6.18-.46-9.13.03-2.29.38-3.62,2.55-5.26,2.98-2.05.54-7.87-.53-8.76.74-2.55,3.64,5.24,6.43,7.97,5.75-1.63-5.84,4.92-1.97,4.89.83-.06,4.88-3.44,6.22-5.8,9.34-2.2,2.9-3.73,7.47-7.81,8.68-3,.89-1.96-1.14-2.88-3.14-1.71-3.72-5.62-8.81-8.53-11.75-.85-.86-.95-1.79-2.69-1.43h0s0,0,0,0c0,0-7.31,1.22-10.02.63-2.71-.59-9.62.63-9.62.63,0,0,2.29-6.62.88-8.64-1.4-2.01-1.3-3.22-2.79-4.66-3.55-4.61-6-11.67-12.04-13.3-.67,4.44,4.66,6.99,4.43,11.39l-6.36-4.09c-2.1-1.69-1.94-5.65-5.05-6.04,0,.76,0,1.51,0,2.27v-2.27s-3.12-1.36-3.67.15c-.55,1.52-.41,4.13-1.58,4.27-1.17.14-1.03,1.17-.55,1.31s2.74,1.52,5.8,1.24c3.52-.47,3.05,3.73,0,3.17-.08.62.03,1.28,0,1.9-.48.04-.75.06-.75.06,0,0,9.56,4.36,10.96,7.23,1.4,2.87,2.8,4.1,2.47,6.02-.81,4.22,5.4,4.87,8.24,3.8.97.34,2.27-.08,6.39-1.04,4.12-.96,13.26,2.94,13.26,2.94h0s0,0,0,0c3.43,3.57,2.23,8.86,6.02,12.03.68.57,1.78.69,2.57,1.26.61.45.74,1.55,1.36,1.94,3.42,2.16,6.54-3.46,10.04-4.45,1.01-.29,1,.07.95.94-.08,1.39-1.61,4.72-2.54,5.71-1.62,1.73-8.3,5.48-9.56,7.08-3.3,4.19-5.42,11.35-7.08,16.19-.46,1.33-2.52,2.34-2.39,4.26,2.79-.14,5.48-.45,8.24-.63.02-3.21,4.02-3.9,5.01-5.44,1.17-1.82.39-5.03,2.29-6.59,1.33-.32,2.27,2.97,4.3,2.46,3.61-.91,14.97-22.19,17.44-26.34.53-.9,1-1.68,1.36-2.09,0,0,1.03-.76,2.43-2.22,1.39-1.46,2.79-16.13,4.37-19.47,1.58-3.34-6.79-3.65-6.79-3.65Z"/>
    <path class="st1" d="M171.68,256c-2.67-21.64-27.87-22.21-27.87-22.21h-27.95s0,82.55,0,82.55h18.42v-29.83s6.53-.03,6.53-.03c36.71-.24,30.88-30.48,30.88-30.48ZM153.95,261.14c-.45,5.06-1.99,8.43-3.63,10.64-1.85,2.49-4.79,3.92-7.89,3.92h-8.16v-30.49s7.85,0,7.85,0c4.86,0,9.33,2.95,10.97,7.52.77,2.15,1.17,4.9.86,8.41Z"/>
    <polygon class="st1" points="298.48 234.36 318.17 234.37 318.16 316.28 298.48 316.28 298.48 234.36"/>
    <polygon class="st1" points="199.46 234.34 218.51 234.34 218.51 268.63 240.1 268.63 240.1 234.34 259.79 234.34 259.79 316.26 240.1 316.26 240.1 281.33 219.14 281.33 219.14 316.26 199.46 316.26 199.46 234.34"/>
    <path class="st7" d="M307.32,265.97c0,49.45-40.09,89.34-89.54,89.54-49.62.2-89.68-39.91-89.54-89.54.15-49.45,40.09-89.54,89.54-89.54s89.54,40.09,89.54,89.54Z"/>
    <path class="st3" d="M246.55,201.83c-.22-.19-2.68-4.34-2.99-4.95-.38-.76-.24-2.27-.4-2.43-.29-.29-6.24-.27-7.55-2.91-.26-1.43.62-.88,1.57-.95,1.33-.09,3.8.37,4.78-.3,3.11-2.14-1.87-2.31-2.75-2.83-.62-.37-.94-1.68-1.66-2.28-7.26-6.09-32.39-5.81-40.02-.64-5.49,3.73-.16,3.67.04,4.49-.36,4.02-4.52,5.09-6.34,7.26-.95,1.14-1.44,2.27-1.27,3.8-4.39-.97-3.4-2.79-6.22,1.06-3.29,4.49-1.63-2.21.79-3.64,1.63-.97,4.77-.39,6.07-1.85.87-.98,4.13-6.99.94-6.99-2.05,0-2.42,6.22-6.83,5.11-.84-.21-1.01-3.13-5.85-2.6-2.31.25-2.3,1.57-3.87,2.49-5.36,3.14-5.11,4.08-9.14,7.98-1.09,1.05-3.66.53-2.17,2.89,1.66.04,3.32-.29,4.88-.82,1.84-.63,10.03-6.1,10.63-5.52-.43,1-.5,5.38-.7,5.63-.4.5-4.71.36-5.36,1.29-.9,1.27.52,4.93-2.48,8.29-3.53,3.96-8.59.53-11.14,2.17-1.71,1.11,2.42,5.78-2.5,8.26-4.35,2.19-3.44-1.43-6.65-1.64-4.84-.32-5.38,3.14-7.9,5.47-2.28,2.11-5.92,2.95-6.37,7.25h0s6.37,10.63,4.19,14.26-6.36,8.26-4.92,12.34c1.43,4.08,1.29,15.27,1,16.87-.29,1.6.12,8.47.37,9.73.58,1.77.25,6.46.94,7.61.46.77,2.94,1.26,3.87,2.46,1.19,1.52.6,2.82,1.21,3.85.36.62,3.93,2.15,5.07,3.17.58.52,4.27,5.21,4.44,5.73.2.6-.24,3.59-.37,3.71-.22.21-3.5.09-4.36.72.19,4.37,3.97,7.69,7.29,10.08l7.27,7.62h0s10.98,3.8,13.95,7.6h0c-.19,1.54,2.1,2.27,3.16,2.86,12.98,7.2,29.84,7.95,44.38,7.9-.91-3.19-3.15-5.94-2.53-9.5h0,0s.3-1.99-.72-3.33.72-3.64.72-3.64h0c.75-2.9-2.51-1.46-3.09-3.62-.83-3.07,3.3-6.61-4.24-7.75-2.94-.44-6.03-.72-9-1.13-3.45-.48-12.4-.55-14.71-1.77-1.2-.63-1.8-3.15-3.19-3.78-1.77-.8-4.73.13-5.61-.41-1.22-.76,0-6.19-1.69-8.13-1.37-1.57-7.7-2.52-7.91-3.51,4.89-6.73,1.83-13.35,8.21-19.65,3.26-3.22,12.46-7.55,16.93-9.69,1.16-.55,2.05-.93,3.38-.73,0-1.69,0-3.38,0-5.07-3.93-.35-7.68-.61-7.66-5.39,0-2.7,4.23-9.88,7.66-9.18-.02-2.43.46-16.38,0-17.1-.09-.14-2.21-.16-1.9-1.57.11-.51,2.43-1.98,2.88-3.46.51-1.67.24-3.4.29-5.1,4.23,1.31,4.97,4.81,4.43,8.86,1.06-.02,2.11.01,3.17,0-.13-1.9.28-4.03-.13-5.89-.7-3.13-4.49-2.8-2.49-7.82.79-1.98,5.45-.26,6.15,1.02,1.03,1.89-.88,2.25-1.32,3.19-1.18,2.51,5.17,6.28,4.77,9.48h3.8c.05-.07,1.1,0,1.55-.63.98-1.4.04-5.11,2.89-3.47-2.26,9.11,5.33,1.91,10.09,1.84,3.39-1.76,3.77-6.28,5.27-7.71,1.15-1.1,4.71-.5,4.28-2.69h-9.19c-2.6,0,2.67-6.64-.95-8.55-4.09-2.17-4.05,5.71-3.77,8.2.2,1.78,2.34,3.58.29,5.43-2.45,2.21-9.13-2.94-9.11-6.03.03-4.27,4.09-5.94,5.55-8.29.92-1.48.32-3.23,1.58-4.75,2.67-3.21,13.03-3.54,10.43.61-.46.74-3.22-.11-2.36,2.2.61,1.63,2.46,1.94,4,1.68,3.15-.52,2.03-4.5,3.23-6.3.43-.64,1.38-.81,1.89-1.31.54-.53.84-1.62,1.06-1.76,1.11-.67,5.23.2,6.84-.14,1.71-1.49-6.2-2.83-6.8-3.33ZM161.44,227.96c.19-1.99-.52-5.49.58-7.18.44-.67,4.94-1.88,5.12-1.68,1.1,1.26-1.54,2.32-1.97,3.4-.91,2.24.09,5.81-3.72,5.47ZM212.11,215.25c-.7,1.13-12.38,1.29-8.88-3.48,3.06-4.18,4.66.79,5.74,1.32,1.01.5,3.07.2,3.18.31.07.06.07,1.67-.04,1.85ZM211.55,204.25c-7.52,2.23-11.07,1.91-18.63,6.08-1.84,1.01-2.44,3.28-5.49,2.43-2.52-8.67,8.77-10.87,13.33-15.49,1.75-1.77,2.53-5.35,3.81-6.33.78-.6,4.99-1.8,5.99-1.66,1.51.21,1.31,1.54,1.71,1.8,1.75,1.09,7.22-1.8,7.46,3.05.15,2.84-5.55,9.33-8.19,10.12Z"/>
    <path class="st3" d="M298.32,270.4c-2.4.31-6.18-.46-9.13.03-2.29.38-3.62,2.55-5.26,2.98-2.05.54-7.87-.53-8.76.74-2.55,3.64,5.24,6.43,7.97,5.75-1.63-5.84,4.92-1.97,4.89.83-.06,4.88-3.44,6.22-5.8,9.34-2.2,2.9-3.73,7.47-7.81,8.68-3,.89-1.96-1.14-2.88-3.14-1.71-3.72-5.62-8.81-8.53-11.75-.85-.86-.95-1.79-2.69-1.43h0s0,0,0,0c0,0-7.31,1.22-10.02.63-2.71-.59-9.62.63-9.62.63,0,0,2.29-6.62.88-8.64-1.4-2.01-1.3-3.22-2.79-4.66-3.55-4.61-6-11.67-12.04-13.3-.67,4.44,4.66,6.99,4.43,11.39l-6.36-4.09c-2.1-1.69-1.94-5.65-5.05-6.04,0,.76,0,1.51,0,2.27v-2.27s-3.12-1.36-3.67.15c-.55,1.52-.41,4.13-1.58,4.27-1.17.14-1.03,1.17-.55,1.31s2.74,1.52,5.8,1.24c3.52-.47,3.05,3.73,0,3.17-.08.62.03,1.28,0,1.9-.48.04-.75.06-.75.06,0,0,9.56,4.36,10.96,7.23,1.4,2.87,2.8,4.1,2.47,6.02-.81,4.22,5.4,4.87,8.24,3.8.97.34,2.27-.08,6.39-1.04,4.12-.96,13.26,2.94,13.26,2.94h0s0,0,0,0c3.43,3.57,2.23,8.86,6.02,12.03.68.57,1.78.69,2.57,1.26.61.45.74,1.55,1.36,1.94,3.42,2.16,6.54-3.46,10.04-4.45,1.01-.29,1,.07.95.94-.08,1.39-1.61,4.72-2.54,5.71-1.62,1.73-8.3,5.48-9.56,7.08-3.3,4.19-5.42,11.35-7.08,16.19-.46,1.33-2.52,2.34-2.39,4.26,2.79-.14,5.48-.45,8.24-.63.02-3.21,4.02-3.9,5.01-5.44,1.17-1.82.39-5.03,2.29-6.59,1.33-.32,2.27,2.97,4.3,2.46,3.61-.91,14.97-22.19,17.44-26.34.53-.9,1-1.68,1.36-2.09,0,0,1.03-.76,2.43-2.22,1.39-1.46,2.79-16.13,4.37-19.47,1.58-3.34-6.79-3.65-6.79-3.65Z"/>
    <path class="st1" d="M171.68,256c-2.67-21.64-27.87-22.21-27.87-22.21h-27.95s0,82.55,0,82.55h18.42v-29.83s6.53-.03,6.53-.03c36.71-.24,30.88-30.48,30.88-30.48ZM153.95,261.14c-.45,5.06-1.99,8.43-3.63,10.64-1.85,2.49-4.79,3.92-7.89,3.92h-8.16v-30.49s7.85,0,7.85,0c4.86,0,9.33,2.95,10.97,7.52.77,2.15,1.17,4.9.86,8.41Z"/>
    <polygon class="st1" points="298.48 234.36 318.17 234.37 318.16 316.28 298.48 316.28 298.48 234.36"/>
    <polygon class="st1" points="199.46 234.34 218.51 234.34 218.51 268.63 240.1 268.63 240.1 234.34 259.79 234.34 259.79 316.26 240.1 316.26 240.1 281.33 219.14 281.33 219.14 316.26 199.46 316.26 199.46 234.34"/>
  </g>
</svg>