<?xml version="1.0" encoding="UTF-8"?>
<svg id="Calque_1" data-name="Calque 1" xmlns="http://www.w3.org/2000/svg" viewBox="0 0 96.01 96.01">
  <defs>
    <style>
      .cls-1 {
        fill: #b4d49a;
      }
    </style>
  </defs>
  <path class="cls-1" d="M18.11,23.78c-.59.9-.21,2.79-.31,3.85,2.05.19,1.51-1.73,2-2.93.23-.58,1.65-1.15,1.06-1.82-.1-.11-2.51.54-2.75.9Z"/>
  <path class="cls-1" d="M34.67,18.17c4.05-2.24,5.96-2.07,9.99-3.26,1.42-.42,4.47-3.9,4.39-5.42-.13-2.6-3.07-1.05-4-1.63-.22-.14-.11-.85-.92-.96-.54-.08-2.79.57-3.21.89-.69.52-1.1,2.44-2.04,3.39-2.45,2.48-8.5,3.66-7.15,8.31,1.63.46,1.96-.76,2.94-1.3Z"/>
  <path class="cls-1" d="M43.28,19.65c-.58-.29-1.44-2.95-3.08-.71-1.88,2.56,4.39,2.47,4.76,1.87.06-.1.06-.96.02-.99-.06-.06-1.17.1-1.71-.17Z"/>
  <path class="cls-1" d="M48.01,0C21.49,0,.08,21.49,0,48.01c-.08,26.6,21.4,48.11,48.01,48.01,26.51-.11,48.01-21.49,48.01-48.01S74.52,0,48.01,0ZM27.31,89.61c-.57-.32-1.8-.71-1.69-1.53-1.59-2.04-7.48-4.08-7.48-4.08l-3.9-4.08c-1.78-1.28-3.8-3.06-3.91-5.41.46-.34,2.22-.27,2.34-.39.07-.07.3-1.67.2-1.99-.09-.28-2.07-2.79-2.38-3.07-.61-.55-2.52-1.37-2.72-1.7-.33-.56-.01-1.25-.65-2.07-.5-.64-1.83-.91-2.08-1.32-.37-.62-.19-3.13-.5-4.08-.13-.68-.35-4.36-.2-5.22.16-.86.23-6.86-.54-9.04-.77-2.19,1.47-4.67,2.64-6.62s-2.25-7.65-2.25-7.65h0c.24-2.31,2.19-2.75,3.42-3.89,1.35-1.25,1.64-3.1,4.24-2.93,1.72.11,1.24,2.06,3.57.88,2.64-1.33.42-3.84,1.34-4.43,1.37-.88,4.08.95,5.97-1.17,1.61-1.8.85-3.77,1.33-4.45.35-.5,2.66-.42,2.88-.69.11-.14.14-2.48.37-3.02-.32-.31-4.71,2.62-5.7,2.96-.83.28-1.72.46-2.61.44-.8-1.27.58-.98,1.16-1.55,2.16-2.09,2.03-2.6,4.9-4.28.84-.49.84-1.2,2.08-1.34,2.6-.28,2.69,1.28,3.14,1.39,2.37.6,2.56-2.74,3.66-2.74,1.71,0-.04,3.22-.5,3.75-.7.79-2.38.47-3.25.99-1.3.77-2.19,4.36-.42,1.95,1.51-2.07.98-1.09,3.33-.57-.09-.82.17-1.43.68-2.04.97-1.17,3.21-1.74,3.4-3.9-.1-.44-2.96-.41-.02-2.41,4.09-2.77,17.56-2.92,21.46.34.39.32.55,1.03.89,1.22.47.28,3.14.37,1.47,1.51-.53.36-1.85.12-2.56.16-.51.03-.98-.26-.84.51.7,1.41,3.89,1.4,4.05,1.56.09.08.01.89.21,1.3.16.33,1.48,2.56,1.6,2.66.32.27,4.56.99,3.65,1.79-.86.18-3.07-.28-3.67.07-.12.07-.28.66-.57.94-.27.27-.78.36-1.01.7-.65.97-.05,3.1-1.73,3.38-.83.14-1.82-.03-2.14-.9-.46-1.24,1.01-.78,1.26-1.18,1.39-2.22-4.16-2.05-5.59-.33-.68.82-.36,1.75-.85,2.55-.78,1.26-2.96,2.16-2.98,4.45-.01,1.66,3.57,4.42,4.88,3.23,1.1-.99-.05-1.96-.16-2.91-.15-1.34-.17-5.56,2.02-4.4,1.94,1.03-.88,4.59.51,4.59h4.93c.23,1.18-1.68.85-2.3,1.44-.81.77-1.01,3.19-2.83,4.13-2.55.04-6.62,3.9-5.41-.99-1.53-.88-1.02,1.11-1.55,1.86-.24.34-.81.3-.83.34h-2.04c.21-1.72-3.19-3.74-2.56-5.08.24-.5,1.26-.7.71-1.71-.37-.69-2.87-1.61-3.3-.55-1.07,2.69.96,2.51,1.34,4.19.22.99,0,2.14.07,3.16-.57,0-1.13-.01-1.7,0,.29-2.17-.11-4.05-2.38-4.75-.02.91.12,1.84-.15,2.73-.24.79-1.48,1.58-1.54,1.86-.17.76.97.76,1.02.84.25.39,0,7.87,0,9.17-1.84-.37-4.11,3.48-4.11,4.92,0,2.56,2,2.7,4.11,2.89,0,.9,0,1.81,0,2.72-.71-.1-1.19.1-1.81.39-2.4,1.15-7.33,3.47-9.08,5.19-3.42,3.38-1.78,6.93-4.4,10.54.12.53,3.51,1.04,4.24,1.88.91,1.04.25,3.95.91,4.36.47.29,2.06-.21,3.01.22.74.34,1.07,1.69,1.71,2.03,1.24.65,6.04.69,7.89.95,1.59.22,3.25.37,4.83.61,4.04.61,1.83,2.51,2.27,4.15.31,1.16,2.06.38,1.66,1.94,0,0-.93,1.23-.39,1.95s.39,1.78.39,1.78c-.33,1.91.87,3.38,1.36,5.09-7.79.03-16.84-.38-23.79-4.24ZM92.49,62.78c-.75.78-1.3,1.19-1.3,1.19-.19.22-.44.64-.73,1.12-1.32,2.23-7.41,13.64-9.35,14.12-1.09.27-1.59-1.49-2.3-1.32-1.02.84-.6,2.56-1.23,3.53-.53.83-2.68,1.2-2.69,2.92-1.48.1-2.92.27-4.42.34-.07-1.03,1.04-1.57,1.28-2.29.89-2.6,2.03-6.44,3.8-8.68.68-.86,4.26-2.87,5.13-3.8.5-.53,1.32-2.32,1.36-3.06.03-.47.03-.66-.51-.51-1.88.53-3.55,3.54-5.38,2.39-.33-.21-.4-.8-.73-1.04-.42-.31-1.01-.37-1.38-.68-2.03-1.7-1.39-4.54-3.23-6.45,0,0-4.9-2.09-7.11-1.58-2.21.52-2.91.74-3.42.56-1.52.58-4.85.23-4.42-2.04.18-1.03-.57-1.69-1.32-3.23-.75-1.54-5.88-3.88-5.88-3.88,0,0,.15-.01.4-.03.02-.33-.04-.69,0-1.02,1.64.3,1.89-1.95,0-1.7-1.64.15-2.85-.59-3.11-.67s-.33-.63.29-.7c.63-.07.55-1.47.85-2.29.29-.81,1.97-.08,1.97-.08,1.67.21,1.58,2.33,2.71,3.24l3.41,2.19c.12-2.36-2.73-3.73-2.38-6.11,3.24.87,4.55,4.66,6.46,7.13.8.77.74,1.42,1.5,2.5.75,1.08-.47,4.63-.47,4.63,0,0,3.7-.65,5.16-.34,1.46.32,5.37-.34,5.37-.34.93-.19.98.3,1.44.77,1.56,1.58,3.66,4.31,4.57,6.3.49,1.07-.06,2.16,1.55,1.68,2.19-.65,3.01-3.1,4.19-4.65,1.27-1.67,3.08-2.39,3.11-5.01.02-1.5-3.5-3.57-2.62-.44-1.46.37-5.64-1.13-4.27-3.08.48-.68,3.6-.11,4.7-.4.88-.23,1.59-1.39,2.82-1.6,1.58-.26,3.61.15,4.89-.02,0,0,4.49.17,3.64,1.96-.85,1.79-1.59,9.66-2.34,10.44Z"/>
</svg>